<svg width="50" height="172" viewBox="0 0 50 172" fill="none" xmlns="http://www.w3.org/2000/svg">
<g id="Iconly/Light/Buy">
<g id="Buy">
<path id="Stroke 1" d="M28.7501 3.25L30.8301 3.61L31.7931 15.083C31.8701 16.02 32.6531 16.739 33.5931 16.736H44.5021C45.3991 16.738 46.1601 16.078 46.2871 15.19L47.2361 8.632C47.3421 7.899 46.8331 7.219 46.1011 7.113C46.0371 7.104 31.1641 7.099 31.1641 7.099" stroke="#056249" stroke-width="1.5" stroke-linecap="round" stroke-linejoin="round"/>
<path id="Stroke 3" d="M40.1251 10.7949H42.8981" stroke="#056249" stroke-width="1.5" stroke-linecap="round" stroke-linejoin="round"/>
<path id="Stroke 5" fill-rule="evenodd" clip-rule="evenodd" d="M33.1544 20.2026C33.4554 20.2026 33.6984 20.4466 33.6984 20.7466C33.6984 21.0476 33.4554 21.2916 33.1544 21.2916C32.8534 21.2916 32.6104 21.0476 32.6104 20.7466C32.6104 20.4466 32.8534 20.2026 33.1544 20.2026Z" fill="#056249" stroke="#056249" stroke-width="1.5" stroke-linecap="round" stroke-linejoin="round"/>
<path id="Stroke 7" fill-rule="evenodd" clip-rule="evenodd" d="M44.4347 20.2026C44.7357 20.2026 44.9797 20.4466 44.9797 20.7466C44.9797 21.0476 44.7357 21.2916 44.4347 21.2916C44.1337 21.2916 43.8907 21.0476 43.8907 20.7466C43.8907 20.4466 44.1337 20.2026 44.4347 20.2026Z" fill="#056249" stroke="#056249" stroke-width="1.5" stroke-linecap="round" stroke-linejoin="round"/>
</g>
</g>
</svg>
