<?xml version="1.0" encoding="utf-8"?>
<svg width="20" height="20" viewBox="0 0 20 20" fill="none" xmlns="http://www.w3.org/2000/svg">
  <g clip-path="url(#clip0_9_6)">
    <path d="M10.0001 10.7031C8.06166 10.7031 6.48459 12.2802 6.48459 14.2188C6.48459 16.1573 8.06166 17.7344 10.0001 17.7344C11.9386 17.7344 13.5157 16.1573 13.5157 14.2188C13.5157 12.2802 11.9386 10.7031 10.0001 10.7031ZM10.0001 16.1719C8.92319 16.1719 8.04705 15.2957 8.04705 14.2188C8.04705 13.1418 8.92319 12.2656 10.0001 12.2656C11.0771 12.2656 11.9532 13.1418 11.9532 14.2188C11.9532 15.2957 11.0771 16.1719 10.0001 16.1719Z" fill="#133B77"/>
    <path d="M19.916 12.3682C19.0543 10.6616 17.6888 9.21586 15.9663 8.18535L18.081 6.07059C18.3861 5.76551 18.3861 5.27086 18.081 4.96574C17.7759 4.66066 17.2813 4.66066 16.9762 4.96574L14.4953 7.44672C13.326 6.96277 12.0709 6.67168 10.7812 6.58789V3.04688C10.7812 2.61539 10.4315 2.26562 9.99998 2.26562C9.5685 2.26562 9.21873 2.61539 9.21873 3.04688V6.58785C7.92908 6.67164 6.67401 6.96273 5.50471 7.44668L3.02381 4.9657C2.71869 4.66059 2.22401 4.66059 1.91893 4.9657C1.61389 5.27078 1.61389 5.76543 1.91897 6.07055L4.03369 8.18531C2.31112 9.21582 0.945646 10.6616 0.0840054 12.3682C-0.110448 12.7534 0.0441617 13.2232 0.429318 13.4177C0.814357 13.6122 1.2844 13.4576 1.47881 13.0724C2.92795 10.2022 6.1574 8.125 10 8.125C13.8455 8.125 17.0733 10.2047 18.5212 13.0725C18.716 13.4583 19.1861 13.6119 19.5707 13.4177C19.9559 13.2232 20.1105 12.7534 19.916 12.3682Z" fill="#133B77"/>
    <path d="M 9.783 19.098 C 9.855 19.561 9.867 19.596 10.146 19.873 C 10.32 20.044 10.609 20.043 10.609 20.043 C 10.719 20.104 11.065 20.008 11.207 19.815 C 11.365 19.603 11.332 19.239 11.332 19.239 L 10.343 9.092 C 10.271 8.66 9.862 8.31 9.43 8.31 C 8.999 8.31 8.709 8.66 8.781 9.092 C 8.781 9.092 9.171 15.256 9.783 19.098 Z" fill="#133B77" style="" transform="matrix(-0.710599, -0.703597, 0.703597, -0.710599, 7.214747, 31.338784)"/>
  </g>
  <defs>
    <clipPath id="clip0_9_6">
      <rect width="20" height="20" fill="white"/>
    </clipPath>
  </defs>
</svg>