<svg width="24" height="24" viewBox="0 0 24 24" fill="none" xmlns="http://www.w3.org/2000/svg">
<path fill-rule="evenodd" clip-rule="evenodd" d="M2.01021 8.2472C2.01021 4.79697 4.83578 2 8.32131 2H15.8011C19.2867 2 22.1122 4.79697 22.1122 8.2472V13.5867C22.1122 17.0369 19.2867 19.8339 15.8011 19.8339H14.1974C13.8932 19.8339 13.5938 19.9086 13.326 20.0514L10.0293 21.8085C8.82111 22.4525 7.41442 21.3723 7.74424 20.0538C7.77221 19.942 7.68674 19.8339 7.57038 19.8339H5.33845C3.50032 19.8339 2.01021 18.3589 2.01021 16.5393V8.2472ZM8.32131 3.38827C5.61035 3.38827 3.41267 5.56369 3.41267 8.2472V16.5393C3.41267 17.5922 4.27488 18.4456 5.33845 18.4456H7.57038C8.59784 18.4456 9.35255 19.4002 9.10559 20.3875C9.06824 20.5368 9.22754 20.6591 9.36437 20.5862L12.6611 18.829C13.1332 18.5774 13.6611 18.4456 14.1974 18.4456H15.8011C18.5121 18.4456 20.7098 16.2702 20.7098 13.5867V8.2472C20.7098 5.56369 18.5121 3.38827 15.8011 3.38827H8.32131ZM8.32131 8.47858C8.32131 8.09522 8.63526 7.78445 9.02254 7.78445H16.0349C16.4222 7.78445 16.7361 8.09522 16.7361 8.47858C16.7361 8.86194 16.4222 9.17271 16.0349 9.17271H9.02254C8.63526 9.17271 8.32131 8.86194 8.32131 8.47858ZM10.1913 11.2551C10.1913 10.8718 10.5052 10.561 10.8925 10.561L16.0349 10.561C16.4222 10.561 16.7361 10.8718 16.7361 11.2551C16.7361 11.6385 16.4222 11.9492 16.0349 11.9492L10.8925 11.9492C10.5052 11.9492 10.1913 11.6385 10.1913 11.2551ZM8.32131 14.0316C8.32131 13.6483 8.63526 13.3375 9.02254 13.3375H16.0349C16.4222 13.3375 16.7361 13.6483 16.7361 14.0316C16.7361 14.415 16.4222 14.7258 16.0349 14.7258H9.02254C8.63526 14.7258 8.32131 14.415 8.32131 14.0316Z" fill="#133B77"/>
</svg>
