<?xml version="1.0" encoding="UTF-8" standalone="no"?>
<!-- Generator: Adobe Illustrator 19.0.0, SVG Export Plug-In . SVG Version: 6.00 Build 0)  -->

<svg
   xmlns:dc="http://purl.org/dc/elements/1.1/"
   xmlns:cc="http://creativecommons.org/ns#"
   xmlns:rdf="http://www.w3.org/1999/02/22-rdf-syntax-ns#"
   xmlns:svg="http://www.w3.org/2000/svg"
   xmlns="http://www.w3.org/2000/svg"
   xmlns:sodipodi="http://sodipodi.sourceforge.net/DTD/sodipodi-0.dtd"
   xmlns:inkscape="http://www.inkscape.org/namespaces/inkscape"
   version="1.1"
   id="Layer_1"
   x="0px"
   y="0px"
   viewBox="0 0 426.667 426.667"
   style="enable-background:new 0 0 426.667 426.667;"
   xml:space="preserve"
   sodipodi:docname="information.svg"
   inkscape:version="0.92.4 (5da689c313, 2019-01-14)"><metadata
   id="metadata919"><rdf:RDF><cc:Work
       rdf:about=""><dc:format>image/svg+xml</dc:format><dc:type
         rdf:resource="http://purl.org/dc/dcmitype/StillImage" /></cc:Work></rdf:RDF></metadata><defs
   id="defs917" /><sodipodi:namedview
   pagecolor="#ffffff"
   bordercolor="#666666"
   borderopacity="1"
   objecttolerance="10"
   gridtolerance="10"
   guidetolerance="10"
   inkscape:pageopacity="0"
   inkscape:pageshadow="2"
   inkscape:window-width="1644"
   inkscape:window-height="1226"
   id="namedview915"
   showgrid="false"
   inkscape:zoom="0.55312458"
   inkscape:cx="213.3335"
   inkscape:cy="213.3335"
   inkscape:window-x="633"
   inkscape:window-y="110"
   inkscape:window-maximized="0"
   inkscape:current-layer="Layer_1" />
<g
   id="g882"
   style="fill:#5fbcd3">
	<path
   style="fill:#5fbcd3"
   d="M213.338,0C95.509,0,0,95.497,0,213.325c0,117.854,95.509,213.342,213.338,213.342   c117.82,0,213.329-95.488,213.329-213.342C426.667,95.497,331.157,0,213.338,0z M213.333,99.49   c14.793,0,26.786,11.994,26.786,26.786s-11.998,26.782-26.786,26.782s-26.786-11.994-26.786-26.782   C186.547,111.484,198.541,99.49,213.333,99.49z M260.207,327.181H166.46v-40.183h20.087v-80.358H166.46V166.46h73.664v40.179   v80.358h20.087v40.183H260.207z"
   id="path878" />
	<polygon
   style="fill:#5fbcd3"
   points="325.935,394.449 419.55,419.529 394.466,325.918  "
   id="polygon880" />
</g>
<g
   id="g884">
</g>
<g
   id="g886">
</g>
<g
   id="g888">
</g>
<g
   id="g890">
</g>
<g
   id="g892">
</g>
<g
   id="g894">
</g>
<g
   id="g896">
</g>
<g
   id="g898">
</g>
<g
   id="g900">
</g>
<g
   id="g902">
</g>
<g
   id="g904">
</g>
<g
   id="g906">
</g>
<g
   id="g908">
</g>
<g
   id="g910">
</g>
<g
   id="g912">
</g>
</svg>