<svg width="24" height="24" viewBox="0 0 24 24" fill="none" xmlns="http://www.w3.org/2000/svg">
<path d="M24.5636 18.8911L22.6865 8.82778C22.298 6.74489 20.3951 5.23312 18.162 5.23312H15.5065C15.908 4.69256 16.1447 4.03467 16.1447 3.32498C16.1447 1.49161 14.5698 0 12.6341 0C10.6985 0 9.12359 1.49161 9.12359 3.32503C9.12359 4.03472 9.3603 4.69261 9.76182 5.23317H7.10626C4.87315 5.23317 2.9703 6.74494 2.58175 8.82783L0.704674 18.8911C0.467763 20.1614 0.833893 21.4567 1.70908 22.4449C2.58432 23.4332 3.86731 24 5.22924 24H20.0392C21.4011 24 22.6841 23.4332 23.5593 22.445C24.4345 21.4567 24.8005 20.1614 24.5636 18.8911ZM12.6341 1.41689C13.745 1.41689 14.6488 2.27287 14.6488 3.32503C14.6488 4.37719 13.745 5.23317 12.6341 5.23317C11.5233 5.23317 10.6195 4.37719 10.6195 3.32503C10.6195 2.27287 11.5233 1.41689 12.6341 1.41689ZM22.4131 21.5344C21.8228 22.2009 20.9576 22.5831 20.0392 22.5831H5.22924C4.31079 22.5831 3.4455 22.2009 2.85528 21.5344C2.26506 20.8679 2.0181 19.9943 2.1779 19.1377L4.05498 9.07434C4.31703 7.66964 5.60032 6.65002 7.10631 6.65002H18.1621C19.6682 6.65002 20.9515 7.66955 21.2135 9.07425L23.0905 19.1376C23.2503 19.9943 23.0033 20.8679 22.4131 21.5344Z" fill="#0066FF"/>
</svg>
