<svg width="30" height="30" viewBox="0 0 30 30" fill="none" xmlns="http://www.w3.org/2000/svg">
<path d="M28.0229 1.7339C27.5736 1.45303 27.068 1.34068 26.4501 1.39686C25.3827 1.56538 24.4839 1.9586 23.6413 2.57652C22.9111 3.13827 22.0684 3.81237 21.1135 4.59881C20.6641 4.99204 20.2147 5.38526 19.7653 5.77848C19.4844 6.05936 19.2035 6.28405 18.9226 6.56493C18.6418 6.78963 18.4171 6.90198 18.08 6.8458C17.9115 6.78963 17.6868 6.73345 17.4621 6.67728L6.95744 2.74505C6.62039 2.6327 6.28334 2.52035 5.89012 2.408C5.10367 2.1833 4.54192 2.408 4.20488 2.68887C3.58695 3.13827 3.08138 3.70002 2.74433 4.31794C2.35111 4.93586 2.46346 5.60996 3.02521 6.11553C3.24991 6.34023 3.47461 6.50875 3.64313 6.6211C5.55307 7.9693 7.51918 9.26131 9.42912 10.6095C10.1594 11.1151 10.8335 11.5645 11.3391 12.1824C11.4514 12.3509 11.5638 12.4633 11.6761 12.6318L8.02475 16.1146C7.63153 16.5078 7.23831 16.8449 6.84509 17.2381C6.78891 17.2381 6.73274 17.1819 6.67656 17.1819L6.05864 16.9011C5.55307 16.6764 5.10367 16.3955 4.5981 16.1708C3.98018 15.8899 3.30608 15.9461 2.80051 16.3955C2.51964 16.6202 2.23876 16.9011 1.95789 17.1819C1.45232 17.6875 1.39614 18.3054 1.84554 18.8672C1.95789 19.0357 2.07024 19.1481 2.18259 19.2604L3.24991 20.6086C4.48575 22.2377 5.77777 23.8667 7.06979 25.4396C7.23831 25.6643 7.40683 25.8328 7.63153 25.9452C7.85623 26.0575 8.30563 26.3384 8.86738 26.1699C9.54147 25.9452 10.047 25.4958 10.2717 24.8217C10.4964 24.26 10.5526 23.642 10.3279 22.9679L10.2156 22.4624C10.1032 22.013 9.99087 21.5636 9.87852 21.1142C11.3952 19.9345 12.912 18.811 14.3725 17.6313L15.1028 17.0696L15.2713 17.3505C15.6645 17.9684 16.0016 18.5863 16.2263 19.2604L18.8103 25.889C18.9788 26.2822 19.0912 26.6755 19.2597 27.0125C19.5406 27.6304 19.99 27.9675 20.5517 27.9675C20.7764 27.9675 21.0011 27.9113 21.2258 27.799C21.3943 27.7428 21.5629 27.6866 21.6752 27.5743C22.574 27.1249 23.1358 26.5069 23.3604 25.6643C23.529 24.9902 23.4728 24.3723 23.4166 23.9229L22.0684 14.0923C21.9561 13.3059 21.8437 12.4633 21.7314 11.6768C21.6752 11.2836 21.7876 11.0589 22.0684 10.8342L23.2481 9.82306C24.2031 9.03661 25.1019 8.25017 26.0568 7.46372C26.8433 6.78963 27.3489 6.1717 27.7982 5.49761C28.1353 4.99204 28.4723 4.37411 28.6409 3.70002C28.9217 2.96975 28.6409 2.1833 28.0229 1.7339ZM27.5736 3.47532C27.405 4.03707 27.1242 4.54264 26.8433 4.99204C26.5062 5.55378 26.0007 6.11553 25.3266 6.67728C24.4278 7.46372 23.4728 8.25017 22.5178 9.03661L21.3943 9.99158C20.7764 10.441 20.4955 11.1151 20.6079 11.9015C20.7202 12.688 20.8326 13.4744 20.9449 14.317L22.2931 24.1476C22.3493 24.7094 22.3493 25.1026 22.237 25.4396C22.0684 25.9452 21.7314 26.3384 21.1696 26.6193C21.0573 26.6755 20.9449 26.7316 20.7764 26.7878C20.4394 26.9002 20.327 26.844 20.2147 26.5631C20.0461 26.2261 19.9338 25.8328 19.7653 25.4396L17.2936 18.811C17.0127 18.0807 16.6195 17.4066 16.2263 16.7325L15.8892 16.1708L15.3836 15.4405L13.6422 16.7325C12.0693 17.9122 10.4964 19.1481 8.97973 20.3277C8.5865 20.6086 8.64268 20.9457 8.69885 21.1703C8.8112 21.6759 8.97973 22.1815 9.09208 22.6871L9.20442 23.1926C9.31677 23.642 9.31677 24.0353 9.14825 24.3723C8.97973 24.7094 8.75503 24.9341 8.3618 25.0464C8.3618 25.0464 8.24945 25.0464 8.08093 24.9341C7.96858 24.8779 7.85623 24.7655 7.80006 24.6532C6.50804 23.0241 5.2722 21.4512 4.03635 19.8222L2.96903 18.474C2.85668 18.3616 2.80051 18.2493 2.68816 18.0807C2.63198 18.0246 2.63199 17.9684 2.63199 17.9684C2.63199 17.9684 2.68816 17.9122 2.74433 17.856C2.96903 17.6313 3.24991 17.3505 3.4746 17.1819C3.64313 17.0134 3.86783 17.0134 4.09253 17.1258C4.5981 17.3505 5.0475 17.5752 5.55307 17.856L6.17099 18.1369C6.28334 18.1931 6.39569 18.2493 6.50804 18.3054C6.78891 18.474 7.12596 18.4178 7.40683 18.1931C7.85623 17.7437 8.30563 17.3505 8.75503 16.9011L12.6311 13.2497L13.0805 12.8003L12.7996 12.4071C12.7434 12.2947 12.6873 12.2386 12.6311 12.1262C12.4626 11.9015 12.3502 11.6768 12.1817 11.5083C11.5638 10.778 10.8335 10.2163 10.047 9.71071C8.1371 8.41869 6.17099 7.0705 4.26105 5.72231C4.09253 5.60996 3.924 5.49761 3.75548 5.32908C3.58696 5.16056 3.58695 5.10439 3.6993 4.99204C3.98018 4.48646 4.42958 4.03707 4.93515 3.64384C5.0475 3.53149 5.21602 3.47532 5.60924 3.58767C6.00247 3.70002 6.33952 3.81237 6.62039 3.92472L17.1251 7.85695C17.4059 7.9693 17.6868 8.02547 17.9115 8.08164C18.5294 8.19399 19.1473 8.02547 19.6529 7.57607C19.9338 7.2952 20.2147 7.0705 20.4955 6.78963C20.9449 6.3964 21.3943 6.00318 21.8437 5.60996C22.7987 4.82351 23.5851 4.14942 24.3154 3.58767C24.9895 3.0821 25.776 2.74505 26.6186 2.6327C26.8995 2.57652 27.1242 2.6327 27.3489 2.74505C27.5735 2.80122 27.6859 3.13827 27.5736 3.47532Z" fill="#0066FF" stroke="#0066FF" stroke-width="0.5"/>
</svg>
